<svg height="512" width="512" xmlns="http://www.w3.org/2000/svg"><g transform="translate(1156 -3167.215)"><rect height="512" rx="64" ry="64" width="512" x="-1156" y="3167.215"/><g fill="#fff"><path d="M-1025.708 3357.921L-1100 3490.86h142.531l74.303-132.938h-142.542z"/><path d="M-875.568 3355.57v133.18h18.547v-7.683c6.026 6.415 13.772 9.793 22.89 9.793 11.278 0 21.158-4.71 29.146-13.817 8.091-9.225 12.035-22.213 12.035-38.56 0-6.937-.936-13.487-2.82-19.631-1.88-6.128-4.5-11.436-7.885-15.862-3.419-4.469-7.8-7.952-13.046-10.398-5.235-2.44-10.82-3.66-16.664-3.66-8.717 0-16.33 3.136-22.549 9.123v-42.485h-19.654zm40.84 50.838c6.015 0 10.931 2.49 15.281 7.881 4.194 5.2 6.513 13.638 6.513 25.512 0 11.563-2.382 19.931-6.8 25.37l-.01.022c-4.554 5.597-9.616 8.178-15.664 8.178-7.52 0-13.158-3.475-17.686-11.124-2.567-4.335-4.097-12.088-4.097-23.061 0-11.02 2.362-19.115 6.8-24.578 4.557-5.61 9.609-8.2 15.664-8.2zm94.76-17.478c-8.103 0-15.686 1.98-22.602 5.936-7.006 4.007-12.278 10.109-15.674 18.05-3.374 7.886-5.034 17.011-5.034 27.325 0 15.94 3.878 28.534 11.844 37.384 7.912 8.79 18.557 13.234 31.38 13.234 10.29 0 19.194-3.23 26.359-9.64 7.184-6.427 11.639-15.375 13.344-26.49l.35-2.287-2.212-.297-15.047-2.022-2.128-.286-.309 2.21c-1.03 7.566-3.419 12.854-6.96 16.202-3.624 3.428-8.006 5.122-13.567 5.122-6.945 0-12.251-2.494-16.525-7.716-4.136-5.055-6.46-13.617-6.46-25.854 0-12.046 2.389-20.499 6.694-25.6 4.437-5.258 9.947-7.793 17.132-7.793 4.663 0 8.43 1.39 11.642 4.21 3.164 2.78 5.468 6.994 6.81 12.926l.457 2.034 1.99-.319 14.877-2.374 2.224-.352-.426-2.286c-1.833-9.832-6.096-17.675-12.759-23.15-6.666-5.477-15.232-8.166-25.4-8.166z" style="text-indent:0;text-align:start;line-height:125%;text-transform:none;block-progression:tb;marker:none;-inkscape-font-specification:Sans" overflow="visible" font-size="40" font-weight="400" letter-spacing="0" word-spacing="0" color="#000" font-family="Sans"/></g></g></svg>