<svg height="56.693" width="56.693" xmlns="http://www.w3.org/2000/svg"><path d="M29.207 4.374c-13.6 0-24.625 11.023-24.625 24.623 0 13.6 11.025 24.625 24.625 24.625 13.598 0 24.624-11.026 24.624-24.625 0-13.6-11.026-24.623-24.624-24.623zM22.09 14.666l15.515 8.306-4.734 4.734-13.218-13.218a2.964 2.964 0 0 1 2.437.178zM17.67 40.12V17.313c0-.797.3-1.493.773-2.014L31.86 28.716 18.443 42.134a2.963 2.963 0 0 1-.773-2.014zm4.42 2.648a2.965 2.965 0 0 1-2.437.177l13.218-13.218 4.734 4.734-15.515 8.306zm21.3-11.404l-4.468 2.392-5.04-5.04 5.04-5.04 4.469 2.393c2.114 1.132 2.114 4.163 0 5.295z"/></svg>