<svg height="60" width="60" xmlns="http://www.w3.org/2000/svg"><g fill="none" fill-rule="evenodd"><circle cx="30" cy="30" fill="#000" r="30"/><path d="M25.206 19.269s3.472-1.953 7.245-3.174c3.773-1.22 8.463-1.72 8.463-1.72v20.614c0 1.631-.208 2.861-.622 3.69-.414.829-1.118 1.513-2.111 2.052-.994.54-2.115.81-3.365.81-1.434 0-2.578-.412-3.433-1.234-.856-.822-1.283-1.884-1.283-3.187 0-1.315.506-2.45 1.52-3.404 1.012-.954 2.321-1.43 3.926-1.43.526 0 .99.046 1.391.138.402.092 1.056.329 1.964.71V21.348s-2.365 0-5.484 1.005c-3.12 1.005-6.257 2.645-6.257 2.645v13.997c0 1.592-.21 2.831-.632 3.72-.42.887-1.144 1.594-2.17 2.12-1.026.527-2.145.79-3.355.79-1.434 0-2.568-.405-3.404-1.214-.835-.809-1.253-1.864-1.253-3.167 0-1.381.5-2.542 1.5-3.483 1-.94 2.309-1.41 3.927-1.41 1.026 0 2.17.302 3.433.907v-17.99z" fill="#FFF"/></g></svg>