<svg height="512" width="512" xmlns="http://www.w3.org/2000/svg"><path d="M0 0h512v512H0z"/><path d="M56 296.106c0 13.52 6.154 25.615 15.858 33.765v-67.52c-9.704 8.13-15.859 20.237-15.859 33.755m32.63-42.631v85.256a46.46 46.46 0 0 0 12.452 1.714h4.329v-88.47a50.192 50.192 0 0 0-4.36-.202 46.005 46.005 0 0 0-12.42 1.702m37.048 5.534a40.037 40.037 0 0 0-3.509-2.033v83.468h16.772v-111.64c-6.675 8.71-11.326 18.996-13.263 30.205m30.043-45.905v127.341h16.772V204.848a71.534 71.534 0 0 0-16.772 8.256m33.542-11.729v139.069h16.781V201.889a71.756 71.756 0 0 0-10.584-.778c-2.1 0-4.165.1-6.197.264m42.796 9.809c-5.477-3.25-11.373-5.804-17.63-7.518v136.779h25.157V201.093a86.083 86.083 0 0 0-7.527 10.09m15.92-18.498v147.76h159.344v-.194c33.55-2.15 48.678-22.964 48.678-48.362 0-26.823-20.279-48.556-47.57-48.556-7.004 0-12.77 1.446-18.862 4.062-4.368-42.59-40.495-75.84-84.985-75.84-21.751-.002-41.536 7.966-56.605 21.13" fill="#fff"/></svg>