<svg height="60" width="60" xmlns="http://www.w3.org/2000/svg"><g fill="none" fill-rule="evenodd"><path d="M2.996 0h54.008A2.993 2.993 0 0 1 60 2.996v54.008A2.993 2.993 0 0 1 57.004 60H2.996A2.993 2.993 0 0 1 0 57.004V2.996A2.993 2.993 0 0 1 2.996 0z" fill="#000"/><path d="M49.216 22.069s-.375-2.643-1.525-3.807c-1.458-1.527-3.093-1.534-3.842-1.624-5.366-.388-13.416-.388-13.416-.388h-.017s-8.05 0-13.416.388c-.75.09-2.384.097-3.842 1.624-1.15 1.164-1.525 3.807-1.525 3.807s-.383 3.103-.383 6.206v2.91c0 3.103.383 6.206.383 6.206s.375 2.643 1.525 3.807c1.458 1.527 3.374 1.478 4.228 1.639 3.068.294 13.038.385 13.038.385s8.059-.012 13.425-.4c.75-.09 2.384-.097 3.842-1.624 1.15-1.164 1.525-3.807 1.525-3.807s.382-3.103.382-6.206v-2.91c0-3.103-.382-6.206-.382-6.206zM26.466 34.71l-.002-10.775 10.361 5.406-10.36 5.37z" fill="#FFF"/></g></svg>