<?xml version="1.0" ?><svg viewBox="0 0 96 96" xmlns="http://www.w3.org/2000/svg"><title/><g data-name="Layer 2" id="Layer_2"><g data-name="Layer 2" id="Layer_2-2"><path d="M48,0A48,48,0,1,0,96,48,48,48,0,0,0,48,0ZM34.16,27.78,57.31,40.64l-5.84,5.54L31.53,27.26A3.21,3.21,0,0,1,34.16,27.78ZM29.59,65.62V30.27a3,3,0,0,1,.16-1.15L49.57,48,29.75,66.74A2.94,2.94,0,0,1,29.59,65.62Zm4.58,2.52a3.26,3.26,0,0,1-2.69.47L51.41,49.74l6,5.68ZM65.78,50.76l-6,3.29L53.33,48l6.36-6,6.17,3.43C67.64,46.4,68.74,49.11,65.78,50.76Z"/></g></g></svg>