<?xml version="1.0" ?><svg height="60px" version="1.1" viewBox="0 0 60 60" width="60px" xmlns="http://www.w3.org/2000/svg" xmlns:sketch="http://www.bohemiancoding.com/sketch/ns" xmlns:xlink="http://www.w3.org/1999/xlink"><title/><defs/><g fill="none" fill-rule="evenodd" id="black" stroke="none" stroke-width="1"><g id="itunes"><circle cx="30" cy="30" fill="#000000" r="30"/><path d="M25.2062024,19.2687462 C25.2062024,19.2687462 28.6780819,17.315979 32.45097,16.0952759 C36.2238582,14.8745728 40.9135491,14.375 40.9135491,14.375 L40.9135491,34.9889951 C40.9135491,36.620252 40.7063563,37.8502539 40.2919644,38.6790376 C39.8775725,39.5078214 39.1737747,40.1918866 38.1805497,40.7312538 C37.1873248,41.270621 36.0658525,41.5403005 34.8160992,41.5403005 C33.3821718,41.5403005 32.2376781,41.1292037 31.3825837,40.3069976 C30.5274894,39.4847915 30.0999486,38.4225171 30.0999486,37.1201427 C30.0999486,35.8046129 30.60642,34.6699855 31.6193779,33.7162265 C32.6323358,32.7624674 33.9412683,32.285595 35.5462146,32.285595 C36.0724265,32.285595 36.5361437,32.3316379 36.9373803,32.423725 C37.3386169,32.515812 37.9930831,32.7526038 38.9007987,33.1341075 L38.9007987,21.3475258 C38.9007987,21.3475258 36.536357,21.3475257 33.4168514,22.3529053 C30.2973458,23.3582852 27.1597543,24.9981026 27.1597543,24.9981026 L27.1597543,38.9947632 C27.1597543,40.5865542 26.9492727,41.8264224 26.5283032,42.714405 C26.1073337,43.6023876 25.3838032,44.3094742 24.35769,44.8356861 C23.3315768,45.361898 22.2133933,45.625 21.0031059,45.625 C19.5691785,45.625 18.4345511,45.2204807 17.5991897,44.4114299 C16.7638283,43.6023791 16.3461538,42.5466823 16.3461538,41.2443078 C16.3461538,39.8630016 16.8460477,38.702064 17.8458503,37.7614602 C18.8456529,36.8208565 20.1545853,36.3505616 21.7726869,36.3505616 C22.7988001,36.3505616 23.9432939,36.6531289 25.2062024,37.2582726 L25.2062024,19.2687462 Z" fill="#FFFFFF"/></g></g></svg>