<svg height="24" width="24" xmlns="http://www.w3.org/2000/svg"><path d="M12 12.98V20l-7.875-4.8H2.042C1 15.2 1 14.133 1 14.133V9.867S1 8.8 2.042 8.8h2.083l.725-.442L12 12.979zm0-3.573V4L7.695 6.624 12 9.407zm9.408 6.08c.383-1.09.592-2.263.592-3.485a10.47 10.47 0 0 0-3.396-7.732l-.765.656A9.476 9.476 0 0 1 21 12.002a9.49 9.49 0 0 1-.459 2.925l.867.56zm-1.4 2.668a10.56 10.56 0 0 1-1.59 1.746l-.802-.63a9.556 9.556 0 0 0 1.552-1.66l.84.544zm-1.122-4.298c.075-.44.114-.893.114-1.355a7.983 7.983 0 0 0-2.854-6.125l-.77.66a6.987 6.987 0 0 1 2.584 6.222l.926.598zm-1.09 2.868a8.038 8.038 0 0 1-1.344 1.632l-.798-.626c.505-.45.944-.972 1.302-1.549l.84.543zm-1.823-4.75a4.998 4.998 0 0 0-2.154-3.603l-.794.68a4.012 4.012 0 0 1 1.76 2.156l1.188.767zm-.698 3.121c-.322.53-.74.995-1.229 1.371l-.818-.643a4.02 4.02 0 0 0 1.207-1.271l.84.543zM2.962 5.802l19.552 12.874.546-.838L3.508 4.964l-.546.838z" fill-rule="evenodd"/></svg>