<svg height="24" width="24" xmlns="http://www.w3.org/2000/svg"><path d="M4.125 8.8H2.042C1 8.8 1 9.867 1 9.867v4.266S1 15.2 2.042 15.2h2.083L12 20V4L4.125 8.8zm14.479-4.53A10.472 10.472 0 0 1 22 12.002c0 3.15-1.387 5.975-3.583 7.9l-.801-.63A9.48 9.48 0 0 0 21 12.002c0-2.81-1.22-5.337-3.161-7.076l.765-.656zm-2.458 2.107A7.983 7.983 0 0 1 19 12.502c0 2.312-.98 4.394-2.548 5.855l-.798-.626A6.983 6.983 0 0 0 18 12.502a6.987 6.987 0 0 0-2.625-5.464l.771-.661zM13.82 8.372a4.995 4.995 0 0 1 2.18 4.13c0 1.615-.766 3.05-1.954 3.965l-.818-.643A3.996 3.996 0 0 0 15 12.502c0-1.47-.793-2.755-1.975-3.45l.794-.68z" fill-rule="evenodd"/></svg>